0
SECTION
2
HEADER
9
$ACADVER
1
AC1021
9
$INSUNITS
70
4
0
ENDSEC
0
SECTION
2
TABLES
0
TABLE
2
LAYER
70
19
0
LAYER
2
0
70
0
62
7
6
CONTINUOUS
0
LAYER
2
AISLE
70
0
62
4
6
CONTINUOUS
0
LAYER
2
ANNOTATION
70
0
62
7
6
CONTINUOUS
0
LAYER
2
COLUMN
70
0
62
6
6
CONTINUOUS
0
LAYER
2
DIMENSION
70
0
62
2
6
CONTINUOUS
0
LAYER
2
DOCK
70
0
62
5
6
CONTINUOUS
0
LAYER
2
DOOR
70
0
62
2
6
CONTINUOUS
0
LAYER
2
EQUIP_CHARGER
70
0
62
30
6
CONTINUOUS
0
LAYER
2
EQUIP_CONVEYOR
70
0
62
1
6
CONTINUOUS
0
LAYER
2
F01_RACK
70
0
62
3
6
CONTINUOUS
0
LAYER
2
F01_WALL
70
0
62
7
6
CONTINUOUS
0
LAYER
2
F02_RACK
70
0
62
3
6
CONTINUOUS
0
LAYER
2
F02_WALL
70
0
62
7
6
CONTINUOUS
0
LAYER
2
RACK
70
0
62
3
6
CONTINUOUS
0
LAYER
2
ROUTE
70
0
62
4
6
CONTINUOUS
0
LAYER
2
SAFETY
70
0
62
1
6
CONTINUOUS
0
LAYER
2
STAIR
70
0
62
4
6
CONTINUOUS
0
LAYER
2
WALL
70
0
62
7
6
CONTINUOUS
0
LAYER
2
ZONE
70
0
62
8
6
CONTINUOUS
0
ENDTAB
0
ENDSEC
0
SECTION
2
BLOCKS
0
BLOCK
5
100
8
0
2
RACK_UNIT
70
0
10
0
20
0
30
0
0
LINE
5
101
8
0
10
0
20
0
30
0
11
3500
21
0
31
0
0
LINE
5
102
8
0
10
3500
20
0
30
0
11
3500
21
1200
31
0
0
LINE
5
103
8
0
10
3500
20
1200
30
0
11
0
21
1200
31
0
0
LINE
5
104
8
0
10
0
20
1200
30
0
11
0
21
0
31
0
0
ATTDEF
5
105
8
0
2
RACK_ID
3
Rack identifier
1
UNSET
10
300
20
400
30
0
40
250
70
0
0
ENDBLK
5
106
8
0
0
ENDSEC
0
SECTION
2
ENTITIES
0
LWPOLYLINE
5
107
8
F01_WALL
90
4
70
1
10
0
20
0
10
24000
20
0
10
24000
20
13000
10
0
20
13000
0
LWPOLYLINE
5
108
8
F01_RACK
90
4
70
1
10
3000
20
3000
10
6500
20
3000
10
6500
20
4200
10
3000
20
4200
0
LWPOLYLINE
5
109
8
F01_RACK
90
4
70
1
10
8500
20
3000
10
12000
20
3000
10
12000
20
4200
10
8500
20
4200
0
LWPOLYLINE
5
10A
8
F01_RACK
90
4
70
1
10
14000
20
3000
10
17500
20
3000
10
17500
20
4200
10
14000
20
4200
0
TEXT
5
10B
8
F01_WALL
10
500
20
12200
30
0
40
400
1
FLOOR 1
0
LWPOLYLINE
5
10C
8
F02_WALL
90
4
70
1
38
6000
10
0
20
0
10
24000
20
0
10
24000
20
13000
10
0
20
13000
0
LWPOLYLINE
5
10D
8
F02_RACK
90
4
70
1
38
6000
10
3000
20
3000
10
6500
20
3000
10
6500
20
4200
10
3000
20
4200
0
LWPOLYLINE
5
10E
8
F02_RACK
90
4
70
1
38
6000
10
8500
20
3000
10
12000
20
3000
10
12000
20
4200
10
8500
20
4200
0
LWPOLYLINE
5
10F
8
F02_RACK
90
4
70
1
38
6000
10
14000
20
3000
10
17500
20
3000
10
17500
20
4200
10
14000
20
4200
0
TEXT
5
110
8
F02_WALL
10
500
20
12200
30
6000
40
400
1
FLOOR 2
0
LINE
5
111
8
STAIR
10
21000
20
2000
30
0
11
23000
21
5000
31
0
0
CIRCLE
5
112
8
COLUMN
10
22000
20
3500
30
0
40
350
0
TEXT
5
113
8
ANNOTATION
10
500
20
-1200
30
0
40
350
1
L2-DEV-002
0
ENDSEC
0
EOF
