0
SECTION
2
HEADER
9
$ACADVER
1
AC1009
9
$INSUNITS
70
4
0
ENDSEC
0
SECTION
2
TABLES
0
TABLE
2
LAYER
70
15
0
LAYER
2
0
70
0
62
7
6
CONTINUOUS
0
LAYER
2
AISLE
70
0
62
4
6
CONTINUOUS
0
LAYER
2
ANNOTATION
70
0
62
7
6
CONTINUOUS
0
LAYER
2
COLUMN
70
0
62
6
6
CONTINUOUS
0
LAYER
2
DIMENSION
70
0
62
2
6
CONTINUOUS
0
LAYER
2
DOCK
70
0
62
5
6
CONTINUOUS
0
LAYER
2
DOOR
70
0
62
2
6
CONTINUOUS
0
LAYER
2
EQUIP_CHARGER
70
0
62
30
6
CONTINUOUS
0
LAYER
2
EQUIP_CONVEYOR
70
0
62
1
6
CONTINUOUS
0
LAYER
2
RACK
70
0
62
3
6
CONTINUOUS
0
LAYER
2
ROUTE
70
0
62
4
6
CONTINUOUS
0
LAYER
2
SAFETY
70
0
62
1
6
CONTINUOUS
0
LAYER
2
STAIR
70
0
62
4
6
CONTINUOUS
0
LAYER
2
WALL
70
0
62
7
6
CONTINUOUS
0
LAYER
2
ZONE
70
0
62
8
6
CONTINUOUS
0
ENDTAB
0
ENDSEC
0
SECTION
2
BLOCKS
0
BLOCK
5
100
8
0
2
RACK_UNIT
70
0
10
0
20
0
30
0
0
LINE
5
101
8
0
10
0
20
0
30
0
11
3500
21
0
31
0
0
LINE
5
102
8
0
10
3500
20
0
30
0
11
3500
21
1200
31
0
0
LINE
5
103
8
0
10
3500
20
1200
30
0
11
0
21
1200
31
0
0
LINE
5
104
8
0
10
0
20
1200
30
0
11
0
21
0
31
0
0
ENDBLK
5
105
8
0
0
ENDSEC
0
SECTION
2
ENTITIES
0
POLYLINE
5
106
8
WALL
66
1
10
0
20
0
30
0
70
1
0
VERTEX
5
107
8
WALL
10
0
20
0
30
0
0
VERTEX
5
108
8
WALL
10
27000
20
0
30
0
0
VERTEX
5
109
8
WALL
10
25000
20
17000
30
0
0
VERTEX
5
10A
8
WALL
10
2000
20
19000
30
0
0
SEQEND
5
10B
8
WALL
0
INSERT
5
10C
8
RACK
2
RACK_UNIT
10
4000
20
4000
30
0
50
19
0
INSERT
5
10D
8
RACK
2
RACK_UNIT
10
7200
20
8500
30
0
50
19
0
INSERT
5
10E
8
RACK
2
RACK_UNIT
10
10400
20
4000
30
0
50
19
0
INSERT
5
10F
8
RACK
2
RACK_UNIT
10
13600
20
8500
30
0
50
19
0
INSERT
5
110
8
RACK
2
RACK_UNIT
10
16800
20
4000
30
0
50
19
0
INSERT
5
111
8
RACK
2
RACK_UNIT
10
20000
20
8500
30
0
50
19
0
LINE
5
112
8
AISLE
10
2500
20
3000
30
0
11
23000
21
12000
31
0
0
LINE
5
113
8
AISLE
10
4000
20
14500
30
0
11
21000
21
5500
31
0
0
ARC
5
114
8
DOOR
10
4000
20
1000
30
0
40
1200
50
0
51
85
0
TEXT
5
115
8
ANNOTATION
10
500
20
-1200
30
0
40
350
1
L3-DEV-001
0
ENDSEC
0
EOF
