0
SECTION
2
HEADER
9
$ACADVER
1
AC1015
9
$INSUNITS
70
4
0
ENDSEC
0
SECTION
2
TABLES
0
TABLE
2
LAYER
70
15
0
LAYER
2
0
70
0
62
7
6
CONTINUOUS
0
LAYER
2
AISLE
70
0
62
4
6
CONTINUOUS
0
LAYER
2
ANNOTATION
70
0
62
7
6
CONTINUOUS
0
LAYER
2
COLUMN
70
0
62
6
6
CONTINUOUS
0
LAYER
2
DIMENSION
70
0
62
2
6
CONTINUOUS
0
LAYER
2
DOCK
70
0
62
5
6
CONTINUOUS
0
LAYER
2
DOOR
70
0
62
2
6
CONTINUOUS
0
LAYER
2
EQUIP_CHARGER
70
0
62
30
6
CONTINUOUS
0
LAYER
2
EQUIP_CONVEYOR
70
0
62
1
6
CONTINUOUS
0
LAYER
2
RACK
70
0
62
3
6
CONTINUOUS
0
LAYER
2
ROUTE
70
0
62
4
6
CONTINUOUS
0
LAYER
2
SAFETY
70
0
62
1
6
CONTINUOUS
0
LAYER
2
STAIR
70
0
62
4
6
CONTINUOUS
0
LAYER
2
WALL
70
0
62
7
6
CONTINUOUS
0
LAYER
2
ZONE
70
0
62
8
6
CONTINUOUS
0
ENDTAB
0
ENDSEC
0
SECTION
2
BLOCKS
0
BLOCK
5
100
8
0
2
RACK_UNIT
70
0
10
0
20
0
30
0
0
LINE
5
101
8
0
10
0
20
0
30
0
11
3500
21
0
31
0
0
LINE
5
102
8
0
10
3500
20
0
30
0
11
3500
21
1200
31
0
0
LINE
5
103
8
0
10
3500
20
1200
30
0
11
0
21
1200
31
0
0
LINE
5
104
8
0
10
0
20
1200
30
0
11
0
21
0
31
0
0
ATTDEF
5
105
8
0
2
RACK_ID
3
Rack identifier
1
UNSET
10
300
20
400
30
0
40
250
70
0
0
ENDBLK
5
106
8
0
0
ENDSEC
0
SECTION
2
ENTITIES
0
LWPOLYLINE
5
107
8
WALL
90
4
70
1
10
0
20
0
10
36000
20
0
10
36000
20
24000
10
0
20
24000
0
CIRCLE
5
108
8
COLUMN
10
6000
20
8000
30
0
40
300
0
CIRCLE
5
109
8
COLUMN
10
6000
20
18000
30
0
40
300
0
CIRCLE
5
10A
8
COLUMN
10
14000
20
8000
30
0
40
300
0
CIRCLE
5
10B
8
COLUMN
10
14000
20
18000
30
0
40
300
0
CIRCLE
5
10C
8
COLUMN
10
22000
20
8000
30
0
40
300
0
CIRCLE
5
10D
8
COLUMN
10
22000
20
18000
30
0
40
300
0
CIRCLE
5
10E
8
COLUMN
10
30000
20
8000
30
0
40
300
0
CIRCLE
5
10F
8
COLUMN
10
30000
20
18000
30
0
40
300
0
INSERT
5
110
8
RACK
2
RACK_UNIT
10
3000
20
3500
30
0
66
1
0
ATTRIB
5
111
8
RACK
2
RACK_ID
1
R-01-01
10
3300
20
3900
30
0
40
250
70
0
0
SEQEND
5
112
8
RACK
0
INSERT
5
113
8
RACK
2
RACK_UNIT
10
9000
20
3500
30
0
66
1
0
ATTRIB
5
114
8
RACK
2
RACK_ID
1
R-01-02
10
9300
20
3900
30
0
40
250
70
0
0
SEQEND
5
115
8
RACK
0
INSERT
5
116
8
RACK
2
RACK_UNIT
10
15000
20
3500
30
0
66
1
0
ATTRIB
5
117
8
RACK
2
RACK_ID
1
R-01-03
10
15300
20
3900
30
0
40
250
70
0
0
SEQEND
5
118
8
RACK
0
INSERT
5
119
8
RACK
2
RACK_UNIT
10
21000
20
3500
30
0
66
1
0
ATTRIB
5
11A
8
RACK
2
RACK_ID
1
R-01-04
10
21300
20
3900
30
0
40
250
70
0
0
SEQEND
5
11B
8
RACK
0
INSERT
5
11C
8
RACK
2
RACK_UNIT
10
3000
20
9500
30
0
66
1
0
ATTRIB
5
11D
8
RACK
2
RACK_ID
1
R-01-05
10
3300
20
9900
30
0
40
250
70
0
0
SEQEND
5
11E
8
RACK
0
INSERT
5
11F
8
RACK
2
RACK_UNIT
10
9000
20
9500
30
0
66
1
0
ATTRIB
5
120
8
RACK
2
RACK_ID
1
R-01-06
10
9300
20
9900
30
0
40
250
70
0
0
SEQEND
5
121
8
RACK
0
INSERT
5
122
8
RACK
2
RACK_UNIT
10
15000
20
9500
30
0
66
1
0
ATTRIB
5
123
8
RACK
2
RACK_ID
1
R-01-07
10
15300
20
9900
30
0
40
250
70
0
0
SEQEND
5
124
8
RACK
0
INSERT
5
125
8
RACK
2
RACK_UNIT
10
21000
20
9500
30
0
66
1
0
ATTRIB
5
126
8
RACK
2
RACK_ID
1
R-01-08
10
21300
20
9900
30
0
40
250
70
0
0
SEQEND
5
127
8
RACK
0
LWPOLYLINE
5
128
8
EQUIP_CONVEYOR
90
4
70
1
10
3000
20
17000
10
28000
20
17000
10
28000
20
18500
10
3000
20
18500
0
LWPOLYLINE
5
129
8
EQUIP_CHARGER
90
4
70
1
10
30000
20
18000
10
34000
20
18000
10
34000
20
22000
10
30000
20
22000
0
LWPOLYLINE
5
12A
8
DOCK
90
4
70
1
10
5000
20
0
10
11000
20
0
10
11000
20
1800
10
5000
20
1800
0
LINE
5
12B
8
DOOR
10
17000
20
0
30
0
11
20000
21
0
31
0
0
TEXT
5
12C
8
ANNOTATION
10
500
20
-1200
30
0
40
350
1
L4-DEV-001
0
ENDSEC
0
EOF
