0
SECTION
2
HEADER
9
$ACADVER
1
AC1027
9
$INSUNITS
70
4
0
ENDSEC
0
SECTION
2
TABLES
0
TABLE
2
LAYER
70
18
0
LAYER
2
0
70
0
62
7
6
CONTINUOUS
0
LAYER
2
A01
70
0
62
7
6
CONTINUOUS
0
LAYER
2
AISLE
70
0
62
4
6
CONTINUOUS
0
LAYER
2
ANNOTATION
70
0
62
7
6
CONTINUOUS
0
LAYER
2
COLUMN
70
0
62
6
6
CONTINUOUS
0
LAYER
2
DIMENSION
70
0
62
2
6
CONTINUOUS
0
LAYER
2
DOCK
70
0
62
5
6
CONTINUOUS
0
LAYER
2
DOOR
70
0
62
2
6
CONTINUOUS
0
LAYER
2
EQUIP_CHARGER
70
0
62
30
6
CONTINUOUS
0
LAYER
2
EQUIP_CONVEYOR
70
0
62
1
6
CONTINUOUS
0
LAYER
2
RACK
70
0
62
3
6
CONTINUOUS
0
LAYER
2
RACKS_old_FINAL
70
0
62
2
6
CONTINUOUS
0
LAYER
2
ROUTE
70
0
62
4
6
CONTINUOUS
0
LAYER
2
SAFETY
70
0
62
1
6
CONTINUOUS
0
LAYER
2
STAIR
70
0
62
4
6
CONTINUOUS
0
LAYER
2
WALL
70
0
62
7
6
CONTINUOUS
0
LAYER
2
X-NOISE
70
0
62
8
6
CONTINUOUS
0
LAYER
2
ZONE
70
0
62
8
6
CONTINUOUS
0
ENDTAB
0
ENDSEC
0
SECTION
2
BLOCKS
0
BLOCK
5
100
8
0
2
RACK_UNIT
70
0
10
0
20
0
30
0
0
LINE
5
101
8
0
10
0
20
0
30
0
11
3500
21
0
31
0
0
LINE
5
102
8
0
10
3500
20
0
30
0
11
3500
21
1200
31
0
0
LINE
5
103
8
0
10
3500
20
1200
30
0
11
0
21
1200
31
0
0
LINE
5
104
8
0
10
0
20
1200
30
0
11
0
21
0
31
0
0
ENDBLK
5
105
8
0
0
BLOCK
5
106
8
DIMENSION
2
*D1
70
1
10
0
20
0
30
0
0
LINE
5
107
8
0
10
2000
20
1000
30
0
11
8000
21
1000
31
0
0
ENDBLK
5
108
8
DIMENSION
0
ENDSEC
0
SECTION
2
ENTITIES
0
LWPOLYLINE
5
109
8
A01
90
4
70
1
10
0
20
0
10
24000
20
0
10
24000
20
14000
10
0
20
14000
0
INSERT
5
10A
8
A01
2
RACK_UNIT
10
4000
20
3000
30
0
0
INSERT
5
10B
8
RACKS_old_FINAL
2
RACK_UNIT
10
10000
20
3000
30
0
0
LINE
5
10C
8
X-NOISE
10
-2000
20
-2000
30
0
11
28000
21
17000
31
0
0
TEXT
5
10D
8
X-NOISE
10
1000
20
13000
30
0
40
300
1
SYNTHETIC NOTE - NOT CUSTOMER DATA
0
INSERT
5
10E
8
RACKS_old_FINAL
2
RACK_UNIT
10
15000
20
3000
30
0
50
17
66
1
0
ATTRIB
5
10F
8
RACKS_old_FINAL
2
RACK_ID
1
RACK ?
10
15300
20
3400
30
0
40
250
70
0
0
SEQEND
5
110
8
RACKS_old_FINAL
0
MTEXT
5
111
8
X-NOISE
10
1000
20
11500
30
0
40
280
41
4000
1
Legacy text\Pwith multiple lines
0
ELLIPSE
5
112
8
X-NOISE
10
7000
20
9000
30
0
11
3000
21
700
31
0
40
0.35
41
0
42
6.28318530717959
0
SPLINE
5
113
8
X-NOISE
210
0
220
0
230
1
70
8
71
3
72
8
73
4
74
0
40
0
40
0
40
0
40
0
40
1
40
1
40
1
40
1
10
11000
20
8000
30
0
10
13000
20
11500
30
0
10
17000
20
7500
30
0
10
21000
20
10000
30
0
0
HATCH
5
114
8
X-NOISE
10
0
20
0
30
0
210
0
220
0
230
1
2
SOLID
70
1
71
0
91
1
92
2
72
0
73
1
93
4
10
18000
20
9000
10
22000
20
9000
10
22000
20
12000
10
18000
20
12000
97
0
75
0
76
1
98
0
0
DIMENSION
5
115
8
DIMENSION
2
*D1
10
5000
20
500
30
0
11
5000
21
500
31
0
70
0
1
<>
13
2000
23
1000
33
0
14
8000
24
1000
34
0
0
TEXT
5
116
8
ANNOTATION
10
500
20
-1200
30
0
40
350
1
L5-DEV-003
0
ENDSEC
0
EOF
