0
SECTION
2
HEADER
9
$ACADVER
1
AC1015
9
$INSUNITS
70
4
0
ENDSEC
0
SECTION
2
BLOCKS
0
BLOCK
8
0
2
RACK_UNIT
70
0
10
0
20
0
30
0
0
LWPOLYLINE
5
10
8
RACK
90
4
70
1
10
0
20
0
10
4000
20
0
10
4000
20
1200
10
0
20
1200
0
ENDBLK
8
0
0
ENDSEC
0
SECTION
2
ENTITIES
0
LWPOLYLINE
5
20
8
WALL
90
4
70
1
10
0
20
0
10
30000
20
0
10
30000
20
20000
10
0
20
20000
0
INSERT
5
21
8
RACK
2
RACK_UNIT
10
5000
20
4000
30
0
50
0
0
INSERT
5
22
8
RACK
2
RACK_UNIT
10
11000
20
4000
30
0
50
0
0
INSERT
5
23
8
RACK
2
RACK_UNIT
10
5000
20
9000
30
0
50
0
0
INSERT
5
24
8
RACK
2
RACK_UNIT
10
11000
20
9000
30
0
50
0
0
LINE
5
25
8
DOOR
10
14000
20
0
30
0
11
16000
21
0
31
0
0
LINE
5
26
8
DOCK
10
24000
20
0
30
0
11
28000
21
0
31
0
0
ENDSEC
0
EOF
