0
SECTION
2
HEADER
9
$ACADVER
1
AC1015
9
$INSUNITS
70
4
0
ENDSEC
0
SECTION
2
ENTITIES
0
LWPOLYLINE
5
100
8
F01_WALL
90
4
70
1
38
0
10
0
20
0
10
20000
20
0
10
20000
20
12000
10
0
20
12000
0
LWPOLYLINE
5
101
8
F01_RACK
90
4
70
1
38
0
10
3000
20
3000
10
7000
20
3000
10
7000
20
4200
10
3000
20
4200
0
LWPOLYLINE
5
102
8
F01_RACK
90
4
70
1
38
0
10
10000
20
3000
10
14000
20
3000
10
14000
20
4200
10
10000
20
4200
0
LWPOLYLINE
5
200
8
F02_WALL
90
4
70
1
38
6000
10
0
20
0
10
20000
20
0
10
20000
20
12000
10
0
20
12000
0
LWPOLYLINE
5
201
8
F02_RACK
90
4
70
1
38
6000
10
3000
20
6500
10
7000
20
6500
10
7000
20
7700
10
3000
20
7700
0
LWPOLYLINE
5
202
8
F02_RACK
90
4
70
1
38
6000
10
10000
20
6500
10
14000
20
6500
10
14000
20
7700
10
10000
20
7700
0
ENDSEC
0
EOF
