0
SECTION
2
HEADER
9
$ACADVER
1
AC1015
9
$INSUNITS
70
4
0
ENDSEC
0
SECTION
2
ENTITIES
0
LWPOLYLINE
5
400
8
WALL
90
4
70
1
10
0
20
0
10
32000
20
0
10
32000
20
22000
10
0
20
22000
0
CIRCLE
5
401
8
COLUMN
10
8000
20
8000
30
0
40
300
0
CIRCLE
5
402
8
COLUMN
10
20000
20
8000
30
0
40
300
0
LINE
5
403
8
DOOR
10
14000
20
0
30
0
11
16500
21
0
31
0
0
LWPOLYLINE
5
404
8
DOCK
90
4
70
1
10
24500
20
0
10
30000
20
0
10
30000
20
2000
10
24500
20
2000
0
LWPOLYLINE
5
405
8
RACK
90
4
70
1
10
3000
20
4000
10
7000
20
4000
10
7000
20
5200
10
3000
20
5200
0
LWPOLYLINE
5
406
8
RACK
90
4
70
1
10
12000
20
4000
10
16000
20
4000
10
16000
20
5200
10
12000
20
5200
0
LWPOLYLINE
5
407
8
EQUIP_CONVEYOR
90
4
70
1
10
3000
20
15000
10
22000
20
15000
10
22000
20
16500
10
3000
20
16500
0
LWPOLYLINE
5
408
8
EQUIP_CHARGER
90
4
70
1
10
26000
20
16000
10
28000
20
16000
10
28000
20
18000
10
26000
20
18000
0
ENDSEC
0
EOF
