0
SECTION
2
HEADER
9
$ACADVER
1
AC1015
9
$INSUNITS
70
4
0
ENDSEC
0
SECTION
2
BLOCKS
0
BLOCK
8
0
2
B1
70
0
10
0
20
0
30
0
0
LWPOLYLINE
5
510
8
A01
90
4
70
1
10
0
20
0
10
3000
20
0
10
3000
20
1000
10
0
20
1000
0
ENDBLK
8
0
0
ENDSEC
0
SECTION
2
ENTITIES
0
LWPOLYLINE
5
500
8
A01
90
4
70
1
10
0
20
0
10
18000
20
0
10
18000
20
10000
10
0
20
10000
0
INSERT
5
501
8
A01
2
B1
10
4000
20
3000
30
0
0
INSERT
5
502
8
A01
2
B1
10
9000
20
3000
30
0
0
LINE
5
503
8
X-NOISE
10
100
20
100
30
0
11
101
21
101
31
0
0
LINE
5
504
8
X-NOISE
10
200
20
200
30
0
11
201
21
201
31
0
0
LINE
5
505
8
X-NOISE
10
300
20
300
30
0
11
301
21
301
31
0
0
TEXT
5
506
8
X-NOISE
10
1000
20
9000
30
0
40
250
1
SYNTHETIC-NOISE
0
ENDSEC
0
EOF
